<svg width="819" height="1376" viewBox="0 0 819 1376" fill="none" xmlns="http://www.w3.org/2000/svg">
<g opacity="0.06">
<mask id="mask0_2312_133" style="mask-type:luminance" maskUnits="userSpaceOnUse" x="883" y="69" width="273" height="415">
<path d="M1055.3 483.075C1055.47 479.221 1055.68 475.361 1055.97 471.515C964.285 454.551 894.751 373.901 895.084 277.439C895.459 168.963 984.024 81.0085 1092.5 81.3835C1107.82 81.4307 1122.7 83.3369 1137 86.7623C1138.69 86.4682 1154.77 81.3054 1155.51 79.9703C1135.66 73.5232 1114.52 69.9588 1092.55 69.8862C977.729 69.4934 883.994 162.587 883.594 277.398C883.243 379.991 957.562 465.698 1055.3 483.075Z" fill="white"/>
</mask>
<g mask="url(#mask0_2312_133)">
</g>
<path d="M629.11 770.01C573.62 714.32 500.76 671.54 420.12 678.83C437.22 658.49 453.49 638.43 468.38 619.2C485.21 596.94 505.62 571.1 527.41 543.35C572.96 616.63 619.03 710.83 659.33 800.34L657.95 801.71C648.89 790.96 639.28 780.21 629.11 770.01ZM249.78 834.3C249.23 834.29 248.95 834.02 248.68 833.74C244.28 829.33 268.01 792.49 301.92 758.7C323.97 736.72 350.15 716.13 375.22 706.54C333.03 755.17 302.97 787.87 282.85 807.92C263.82 826.89 253.35 834.57 249.78 834.3ZM487.58 503.92C488.95 505.3 490.88 506.68 493.08 507.78C501.06 507.52 504.64 508.9 507.38 511.66C510.68 514.97 512.87 520.48 518.08 528.47C494.91 558.15 473.4 585.63 455.47 608.99C436.99 632.9 416.3 657.91 395.07 682.92C393.42 683.47 391.49 683.74 389.29 684.28C357.9 692.48 325.66 716.37 297.82 744.11C250.68 791.09 216.45 849.37 222.76 862.87C223.04 863.15 223.31 863.97 223.58 864.24C229.9 870.58 253.87 857.14 302.38 808.79C329.95 781.32 365.52 742.58 410.46 689.54C500.76 673.19 564.52 721.73 624.68 782.11C633.74 791.21 642.53 800.03 651.33 809.4C612.45 855.29 575.48 904.21 575.48 904.77C573.82 909.17 577.94 917.16 582.88 922.12C586.18 925.43 590.3 927.36 592.23 925.44C593.06 924.62 593.61 923.52 593.61 921.86C611.03 872.63 625.08 866.32 660.93 821.81C675.48 840.82 685.35 867.26 698.51 890.4C745.92 1003.04 798.8 1136.6 798.8 1137.16C806.23 1141.3 813.65 1140.49 817.51 1136.64C819.99 1134.17 821.1 1130.87 820.56 1127.01C799.23 1047.71 745.2 939.47 713.38 883.27C702.14 857.1 690.36 829.29 677.48 800.92C695.96 778.66 713.88 758.05 728.21 743.77C742.55 729.48 753.3 721.53 756.87 725.11L757.15 725.39C762.92 726.77 767.05 727.06 769.26 724.86C771.19 722.94 771.47 719.91 769.83 714.96L769.01 714.13C758.84 703.93 733.22 722.87 703.99 751.99C693.52 762.43 682.21 774.24 671.46 786.6C630.61 696.54 584.27 602.62 538.44 529.61C542.03 521.08 655.14 362.22 732.33 285.3C762.93 254.81 788 236.96 798.17 247.17C801.19 250.2 802.83 255.7 802.82 263.96C806.66 267.82 825.66 264.27 831.72 258.23C833.1 256.85 833.93 255.48 833.38 253.83C831.75 242.82 827.91 235.11 823.24 230.42C804.01 211.12 762.68 239.67 717.2 285C636.15 365.77 540.97 500.17 529.11 514.73C521.7 503.44 514.56 492.97 506.88 483.04L505.5 481.66C500.83 476.98 493.4 478.89 488.71 483.56C483.47 488.78 480.98 497.3 487.58 503.92Z" fill="#231F20"/>
<mask id="mask1_2312_133" style="mask-type:luminance" maskUnits="userSpaceOnUse" x="372" y="306" width="695" height="874">
<path d="M673.764 826.068C595.149 825.793 513.344 846.924 461.372 909.011C459.126 882.534 456.49 856.84 453.462 832.709C449.669 805.062 445.885 772.352 441.73 737.315C525.722 757.065 624.849 791.267 716.579 826.219L716.568 828.163C702.563 826.944 688.167 826.114 673.764 826.068ZM450.467 1139.37C450.07 1139.76 449.681 1139.76 449.292 1139.75C443.063 1139.74 433.865 1096.89 434.031 1049.02C434.134 1017.89 438.143 984.823 449.13 960.333C453.575 1024.56 455.366 1068.94 455.269 1097.34C455.18 1124.21 453.186 1137.05 450.467 1139.37ZM385.685 737.503C387.63 737.513 389.971 737.128 392.306 736.354C397.774 730.537 401.284 728.987 405.173 729.008C409.847 729.023 415.288 731.38 424.618 733.362C429.158 770.74 433.321 805.388 437.111 834.59C440.899 864.571 443.899 896.89 446.516 929.591C445.736 931.146 444.56 932.699 443.383 934.635C426.937 962.601 420.966 1002.28 420.828 1041.58C420.602 1108.13 437.497 1173.58 451.496 1178.68C451.892 1178.68 452.662 1179.07 453.044 1179.08C461.996 1179.1 469.486 1152.66 469.716 1084.17C469.853 1045.26 467.7 992.708 462.09 923.416C514.508 848.093 593.934 837.466 679.167 837.766C692.008 837.816 704.46 837.858 717.308 838.283C722.163 898.232 730.509 958.98 730.905 959.376C732.835 963.665 741.393 966.415 748.394 966.442C753.067 966.457 757.348 964.915 757.36 962.193C757.369 961.026 756.982 959.859 755.81 958.683C733.397 911.517 738.895 897.129 732.868 840.296C756.593 843.49 782.247 855.251 807.903 862.351C920.996 908.667 1052.73 965.94 1053.13 966.336C1061.31 964.024 1066 958.212 1066.01 952.761C1066.02 949.261 1064.48 946.14 1061.37 943.787C990.288 902.675 875.612 864.149 813.402 846.804C786.968 836.202 758.993 824.82 729.844 813.817C727.22 785.006 725.364 757.758 725.433 737.528C725.503 717.284 727.506 704.064 732.561 704.08L732.957 704.08C738.018 700.985 741.148 698.275 741.161 695.157C741.172 692.434 739.232 690.091 734.576 687.742L733.409 687.733C719.006 687.687 714.229 719.188 714.081 760.447C714.035 775.232 714.36 791.581 715.471 807.924C622.964 772.971 523.843 739.159 439.844 719.797C436.365 711.221 404.342 518.856 404.718 409.885C404.869 366.689 410.026 336.348 424.436 336.401C428.714 336.416 433.758 339.154 439.582 345.011C445.027 345.035 455.978 329.108 456.007 320.552C456.01 318.6 455.631 317.044 454.077 316.264C445.15 309.616 436.988 306.866 430.369 306.84C403.125 306.745 394.004 356.141 393.789 420.353C393.397 534.776 420.854 697.159 422.732 715.843C409.514 713.077 397.066 710.702 384.616 709.09L382.665 709.086C376.053 709.068 372.139 715.666 372.113 722.284C372.087 729.68 376.337 737.473 385.685 737.503Z" fill="white"/>
</mask>
<g mask="url(#mask1_2312_133)">
<path d="M783.072 190.046L165.314 805.711L655.703 1297.77L1273.46 682.102L783.072 190.046Z" fill="#231F20"/>
</g>
<path d="M774.53 690.48C778.09 703.97 792.06 736.74 811.3 756.04C821.74 766.51 833.83 773.14 846.5 770.41C852 770.97 858.34 766.85 865.23 759.98C911.27 714.1 983.14 532.04 983.41 531.77C983.42 530.67 982.87 530.12 982.32 529.57C979.57 526.81 972.14 526.52 967.18 531.47C965.25 533.39 963.87 535.87 963.32 539.72C963.32 539.72 893.66 714.07 861.41 746.21C858.65 748.96 856.18 750.88 853.7 751.15C847.37 752.52 841.05 749.48 835.28 743.69C816.05 724.39 801.82 674.83 801.82 674.83C801.28 673.73 800.45 672.9 799.62 672.07C793.85 666.28 783.94 667.92 778.15 673.69C774.01 677.82 772.07 683.59 774.53 690.48ZM743.28 623.28C744.37 626.04 746.02 628.24 747.95 630.17C752.62 634.86 758.67 636.52 763.63 634.32C764.73 633.78 765.56 632.95 766.39 632.13C770.8 627.74 771.64 619.21 767.8 611.49C766.7 608.74 765.05 606.53 763.13 604.6C758.46 599.91 752.41 598.25 747.45 600.45C746.35 600.99 745.8 601.54 744.97 602.37C740.56 606.76 739.71 615.29 743.28 623.28Z" fill="#231F20"/>
<mask id="mask2_2312_133" style="mask-type:luminance" maskUnits="userSpaceOnUse" x="771" y="475" width="198" height="282">
<path d="M854.852 736.301C866.896 743.343 899.924 756.693 927.175 756.782C941.961 756.828 955.204 752.99 962.251 742.112C966.542 738.627 968.124 731.233 968.155 721.503C968.379 656.507 890.768 476.821 890.769 476.439C889.999 475.653 889.221 475.651 888.444 475.65C884.547 475.636 879.08 480.676 879.061 487.683C879.049 490.405 879.823 493.136 882.151 496.251C882.151 496.251 955.884 668.916 955.729 714.446C955.715 718.343 955.321 721.446 953.755 723.388C950.239 728.827 943.616 731.135 935.442 731.107C908.198 731.011 863.134 705.953 863.134 705.953C861.975 705.555 860.802 705.553 859.628 705.551C851.454 705.523 845.592 713.68 845.564 721.854C845.547 727.701 848.246 733.158 854.852 736.301ZM785.281 710.763C788.002 711.949 790.723 712.342 793.453 712.347C800.071 712.372 805.528 709.277 807.488 704.218C807.886 703.059 807.888 701.885 807.897 700.718C807.922 694.496 802.496 687.861 794.326 685.104C791.606 683.932 788.877 683.532 786.155 683.52C779.537 683.495 774.079 686.59 772.119 691.649C771.721 692.808 771.72 693.586 771.718 694.76C771.693 700.982 777.113 707.624 785.281 710.763Z" fill="white"/>
</mask>
<g mask="url(#mask2_2312_133)">
<path d="M900.392 447.308L701.367 645.659L840.105 784.868L1039.13 586.518L900.392 447.308Z" fill="#231F20"/>
</g>
</g>
</svg>
