<svg width="1408" height="696" viewBox="0 0 1408 696" fill="none" xmlns="http://www.w3.org/2000/svg">
<g opacity="0.06">
<path d="M598.91 265.13C602.77 265.29 606.62 265.49 610.47 265.77C627.11 174.02 707.53 104.21 804 104.21C912.48 104.21 1000.74 192.47 1000.74 300.95C1000.74 316.27 998.89 331.16 995.51 345.46C995.81 347.16 1001.03 363.22 1002.36 363.95C1008.74 344.07 1012.23 322.92 1012.23 300.95C1012.23 186.13 918.82 92.71 804 92.71C701.4 92.72 615.95 167.33 598.91 265.13Z" fill="#231F20"/>
<mask id="mask0_2312_152" style="mask-type:luminance" maskUnits="userSpaceOnUse" x="598" y="92" width="415" height="272">
<path d="M598.91 265.13C602.77 265.29 606.62 265.49 610.47 265.77C627.11 174.02 707.53 104.21 804 104.21C912.48 104.21 1000.74 192.47 1000.74 300.95C1000.74 316.27 998.89 331.16 995.51 345.46C995.81 347.16 1001.03 363.22 1002.36 363.95C1008.74 344.07 1012.23 322.92 1012.23 300.95C1012.23 186.13 918.82 92.71 804 92.71C701.4 92.72 615.95 167.33 598.91 265.13Z" fill="white"/>
</mask>
<g mask="url(#mask0_2312_152)">
<path d="M1012.23 92.72H598.91V363.96H1012.23V92.72Z" fill="#231F20"/>
</g>
<path d="M180.77 302.58C180.77 223.96 159.36 142.23 97.1 90.47C123.56 88.13 149.25 85.41 173.38 82.3C201.01 78.41 233.71 74.52 268.73 70.23C249.27 154.3 215.41 253.54 180.77 345.39H178.82C180 331.39 180.77 316.99 180.77 302.58ZM-133.3 80.36C-133.69 79.97 -133.69 79.5801 -133.69 79.1901C-133.69 72.9601 -90.88 63.6201 -43.01 63.6201C-11.88 63.6201 21.2 67.51 45.72 78.41C-18.49 83.08 -62.86 85.0201 -91.27 85.0201C-118.13 85.0201 -130.97 83.08 -133.3 80.36ZM268.34 14.1901C268.34 16.1401 268.73 18.4701 269.51 20.8101C275.35 26.2601 276.9 29.7601 276.9 33.6501C276.9 38.3201 274.57 43.77 272.62 53.11C235.26 57.78 200.62 62.0601 171.43 65.9501C141.46 69.8401 109.16 72.9501 76.46 75.6801C74.91 74.9001 73.35 73.7301 71.41 72.5701C43.39 56.2201 3.68999 50.3901 -35.62 50.3901C-102.17 50.3901 -167.56 67.5101 -172.62 81.5201C-172.62 81.9101 -173.01 82.6901 -173.01 83.0701C-173.01 92.0301 -146.55 99.42 -78.05 99.42C-39.13 99.42 13.41 97.0901 82.68 91.2501C158.18 143.4 169.08 222.8 169.08 308.03C169.08 320.87 169.08 333.32 168.7 346.17C108.76 351.23 48.05 359.79 47.66 360.18C43.38 362.12 40.66 370.69 40.66 377.69C40.66 382.36 42.22 386.64 44.94 386.64C46.11 386.64 47.28 386.25 48.45 385.08C95.54 362.5 109.94 367.95 166.76 361.73C163.65 385.47 151.97 411.16 144.97 436.84C99.05 550.09 42.23 682.03 41.83 682.42C44.17 690.59 50 695.26 55.45 695.26C58.95 695.26 62.07 693.71 64.4 690.59C105.26 619.37 143.4 504.55 160.52 442.28C171.03 415.81 182.31 387.8 193.22 358.61C222.02 355.89 249.26 353.94 269.5 353.94C289.74 353.94 302.97 355.89 302.97 360.95V361.34C306.08 366.39 308.81 369.51 311.92 369.51C314.64 369.51 316.98 367.57 319.32 362.9V361.73C319.32 347.33 287.8 342.66 246.54 342.66C231.75 342.66 215.41 343.05 199.06 344.21C233.7 251.59 267.17 152.34 286.24 68.2801C294.8 64.7801 487.06 32.0901 596.04 32.0901C639.24 32.0901 669.59 37.15 669.59 51.55C669.59 55.83 666.87 60.88 661.03 66.73C661.03 72.18 676.99 83.0701 685.55 83.0701C687.5 83.0701 689.05 82.6801 689.83 81.1201C696.45 72.1701 699.17 64.0001 699.17 57.3801C699.17 30.1401 649.74 21.1901 585.53 21.1901C471.11 21.1901 308.82 49.2101 290.14 51.1501C292.86 37.9201 295.2 25.4701 296.76 13.0101V11.0601C296.76 4.45006 290.14 0.560059 283.53 0.560059C276.12 0.570059 268.34 4.86006 268.34 14.1901Z" fill="#231F20"/>
<mask id="mask1_2312_152" style="mask-type:luminance" maskUnits="userSpaceOnUse" x="-174" y="0" width="874" height="696">
<path d="M180.77 302.58C180.77 223.96 159.36 142.23 97.1 90.47C123.56 88.13 149.25 85.41 173.38 82.3C201.01 78.41 233.71 74.52 268.73 70.23C249.27 154.3 215.41 253.54 180.77 345.39H178.82C180 331.39 180.77 316.99 180.77 302.58ZM-133.3 80.36C-133.69 79.97 -133.69 79.5801 -133.69 79.1901C-133.69 72.9601 -90.88 63.6201 -43.01 63.6201C-11.88 63.6201 21.2 67.51 45.72 78.41C-18.49 83.08 -62.86 85.0201 -91.27 85.0201C-118.13 85.0201 -130.97 83.08 -133.3 80.36ZM268.34 14.1901C268.34 16.1401 268.73 18.4701 269.51 20.8101C275.35 26.2601 276.9 29.7601 276.9 33.6501C276.9 38.3201 274.57 43.77 272.62 53.11C235.26 57.78 200.62 62.0601 171.43 65.9501C141.46 69.8401 109.16 72.9501 76.46 75.6801C74.91 74.9001 73.35 73.7301 71.41 72.5701C43.39 56.2201 3.68999 50.3901 -35.62 50.3901C-102.17 50.3901 -167.56 67.5101 -172.62 81.5201C-172.62 81.9101 -173.01 82.6901 -173.01 83.0701C-173.01 92.0301 -146.55 99.42 -78.05 99.42C-39.13 99.42 13.41 97.0901 82.68 91.2501C158.18 143.4 169.08 222.8 169.08 308.03C169.08 320.87 169.08 333.32 168.7 346.17C108.76 351.23 48.05 359.79 47.66 360.18C43.38 362.12 40.66 370.69 40.66 377.69C40.66 382.36 42.22 386.64 44.94 386.64C46.11 386.64 47.28 386.25 48.45 385.08C95.54 362.5 109.94 367.95 166.76 361.73C163.65 385.47 151.97 411.16 144.97 436.84C99.05 550.09 42.23 682.03 41.83 682.42C44.17 690.59 50 695.26 55.45 695.26C58.95 695.26 62.07 693.71 64.4 690.59C105.26 619.37 143.4 504.55 160.52 442.28C171.03 415.81 182.31 387.8 193.22 358.61C222.02 355.89 249.26 353.94 269.5 353.94C289.74 353.94 302.97 355.89 302.97 360.95V361.34C306.08 366.39 308.81 369.51 311.92 369.51C314.64 369.51 316.98 367.57 319.32 362.9V361.73C319.32 347.33 287.8 342.66 246.54 342.66C231.75 342.66 215.41 343.05 199.06 344.21C233.7 251.59 267.17 152.34 286.24 68.2801C294.8 64.7801 487.06 32.0901 596.04 32.0901C639.24 32.0901 669.59 37.15 669.59 51.55C669.59 55.83 666.87 60.88 661.03 66.73C661.03 72.18 676.99 83.0701 685.55 83.0701C687.5 83.0701 689.05 82.6801 689.83 81.1201C696.45 72.1701 699.17 64.0001 699.17 57.3801C699.17 30.1401 649.74 21.1901 585.53 21.1901C471.11 21.1901 308.82 49.2101 290.14 51.1501C292.86 37.9201 295.2 25.4701 296.76 13.0101V11.0601C296.76 4.45006 290.14 0.560059 283.53 0.560059C276.12 0.570059 268.34 4.86006 268.34 14.1901Z" fill="white"/>
</mask>
<g mask="url(#mask1_2312_152)">
<path d="M699.17 0.570068H-173V695.27H699.17V0.570068Z" fill="#231F20"/>
</g>
<path d="M339.92 348.9C332.92 360.97 319.68 394.05 319.68 421.29C319.68 436.08 323.57 449.31 334.47 456.32C337.97 460.6 345.37 462.16 355.1 462.16C420.09 462.16 599.51 383.93 599.9 383.93C600.68 383.15 600.68 382.38 600.68 381.6C600.68 377.71 595.62 372.26 588.61 372.26C585.89 372.26 583.16 373.04 580.05 375.38C580.05 375.38 407.64 449.71 362.1 449.71C358.21 449.71 355.1 449.32 353.15 447.76C347.7 444.26 345.37 437.64 345.37 429.47C345.37 402.22 370.28 357.08 370.28 357.08C370.67 355.92 370.67 354.74 370.67 353.58C370.67 345.41 362.5 339.57 354.32 339.57C348.48 339.56 343.03 342.28 339.92 348.9ZM365.21 279.23C364.04 281.95 363.65 284.68 363.65 287.4C363.65 294.02 366.76 299.47 371.82 301.41C372.99 301.8 374.15 301.8 375.32 301.8C381.54 301.8 388.16 296.35 390.89 288.18C392.06 285.46 392.44 282.73 392.44 280.01C392.44 273.39 389.33 267.94 384.27 266C383.1 265.61 382.33 265.61 381.16 265.61C374.95 265.61 368.33 271.06 365.21 279.23Z" fill="#231F20"/>
<mask id="mask2_2312_152" style="mask-type:luminance" maskUnits="userSpaceOnUse" x="319" y="265" width="282" height="198">
<path d="M339.92 348.9C332.92 360.97 319.68 394.05 319.68 421.29C319.68 436.08 323.57 449.31 334.47 456.32C337.97 460.6 345.37 462.16 355.1 462.16C420.09 462.16 599.51 383.93 599.9 383.93C600.68 383.15 600.68 382.38 600.68 381.6C600.68 377.71 595.62 372.26 588.61 372.26C585.89 372.26 583.16 373.04 580.05 375.38C580.05 375.38 407.64 449.71 362.1 449.71C358.21 449.71 355.1 449.32 353.15 447.76C347.7 444.26 345.37 437.64 345.37 429.47C345.37 402.22 370.28 357.08 370.28 357.08C370.67 355.92 370.67 354.74 370.67 353.58C370.67 345.41 362.5 339.57 354.32 339.57C348.48 339.56 343.03 342.28 339.92 348.9ZM365.21 279.23C364.04 281.95 363.65 284.68 363.65 287.4C363.65 294.02 366.76 299.47 371.82 301.41C372.99 301.8 374.15 301.8 375.32 301.8C381.54 301.8 388.16 296.35 390.89 288.18C392.06 285.46 392.44 282.73 392.44 280.01C392.44 273.39 389.33 267.94 384.27 266C383.1 265.61 382.33 265.61 381.16 265.61C374.95 265.61 368.33 271.06 365.21 279.23Z" fill="white"/>
</mask>
<g mask="url(#mask2_2312_152)">
<path d="M600.67 265.61H319.68V462.15H600.67V265.61Z" fill="#231F20"/>
</g>
<path d="M590.15 334.89L557.07 473.45C557.07 473.83 556.68 474.23 556.68 475.01C556.68 478.9 564.46 481.62 571.47 481.62C577.31 481.62 582.76 479.67 582.76 475.01V474.23C583.15 473.84 634.13 352.02 661.76 352.02C664.49 352.02 667.21 353.58 669.54 356.69C689 383.93 739.21 390.94 781.63 390.94C816.26 390.94 845.85 386.27 847.79 384.32C850.91 383.54 853.63 379.65 853.63 376.93C853.63 375.76 852.85 374.6 850.51 374.6C849.73 374.6 848.18 374.99 846.62 375.38C845.84 375.38 842.34 378.88 837.67 379.27C829.5 379.66 813.15 380.83 794.08 380.83C750.88 380.83 693.28 374.99 678.88 343.08C672.65 334.91 665.26 331.02 657.09 331.02C638.41 331.02 616.23 351.65 601.05 383.94L620.12 336.85V336.07C620.12 329.07 612.72 324.78 605.33 324.78C599.1 324.77 592.87 327.49 590.15 334.89Z" fill="#231F20"/>
<mask id="mask3_2312_152" style="mask-type:luminance" maskUnits="userSpaceOnUse" x="556" y="324" width="298" height="158">
<path d="M590.15 334.89L557.07 473.45C557.07 473.83 556.68 474.23 556.68 475.01C556.68 478.9 564.46 481.62 571.47 481.62C577.31 481.62 582.76 479.67 582.76 475.01V474.23C583.15 473.84 634.13 352.02 661.76 352.02C664.49 352.02 667.21 353.58 669.54 356.69C689 383.93 739.21 390.94 781.63 390.94C816.26 390.94 845.85 386.27 847.79 384.32C850.91 383.54 853.63 379.65 853.63 376.93C853.63 375.76 852.85 374.6 850.51 374.6C849.73 374.6 848.18 374.99 846.62 375.38C845.84 375.38 842.34 378.88 837.67 379.27C829.5 379.66 813.15 380.83 794.08 380.83C750.88 380.83 693.28 374.99 678.88 343.08C672.65 334.91 665.26 331.02 657.09 331.02C638.41 331.02 616.23 351.65 601.05 383.94L620.12 336.85V336.07C620.12 329.07 612.72 324.78 605.33 324.78C599.1 324.77 592.87 327.49 590.15 334.89Z" fill="white"/>
</mask>
<g mask="url(#mask3_2312_152)">
<path d="M853.63 324.77H556.68V481.61H853.63V324.77Z" fill="#231F20"/>
</g>
<path d="M852.83 421.29C852.83 412.34 885.53 369.92 904.2 369.92C906.53 369.92 908.48 370.31 910.43 371.87C885.91 404.56 862.56 423.24 855.16 423.24C853.61 423.23 852.83 422.46 852.83 421.29ZM932.61 352.79C926.77 346.95 917.82 343.06 905.76 343.06C899.53 343.06 892.53 343.84 884.74 346.17C854.77 355.12 830.64 384.31 819.36 409.22C815.47 417.01 813.14 424.79 812.36 431.01C811.97 432.96 811.97 434.9 811.97 436.85C811.97 442.3 813.14 446.97 816.25 450.86C818.97 453.98 822.09 456.31 826.37 457.09C827.15 457.09 827.93 457.48 828.31 457.48C845.05 457.48 880.08 424.78 910.82 395.6C917.44 389.38 919.77 387.43 925.22 381.98L926.39 385.48C927.94 386.26 929.5 386.65 931.06 386.65C935.34 386.65 940.01 384.31 943.52 379.26V377.7C943.52 375.37 943.52 370.7 941.96 366.03C950.91 357.47 956.75 352.02 956.75 352.02V352.41C956.75 355.52 951.69 369.15 949.36 383.93C946.64 394.83 945.47 403.78 945.47 411.56C945.47 440.75 962.98 451.26 987.89 451.26C1048.6 451.26 1152.91 390.15 1157.58 383.54C1159.53 381.2 1160.3 378.87 1160.3 376.53C1160.3 372.24 1157.97 369.13 1154.46 369.13C1152.12 369.13 1149.4 370.69 1147.07 375.36C1133.45 392.48 1041.6 444.64 992.17 444.64C973.1 444.64 960.26 437.24 960.26 417.01C960.26 409.22 962.21 399.5 966.48 387.82C973.1 371.08 976.21 357.85 976.21 348.51C976.21 339.95 973.49 334.89 968.43 334.11C967.65 333.72 966.48 333.33 965.31 333.33C957.91 333.33 944.29 343.06 932.61 352.79Z" fill="#231F20"/>
<mask id="mask4_2312_152" style="mask-type:luminance" maskUnits="userSpaceOnUse" x="811" y="333" width="350" height="125">
<path d="M852.83 421.29C852.83 412.34 885.53 369.92 904.2 369.92C906.53 369.92 908.48 370.31 910.43 371.87C885.91 404.56 862.56 423.24 855.16 423.24C853.61 423.23 852.83 422.46 852.83 421.29ZM932.61 352.79C926.77 346.95 917.82 343.06 905.76 343.06C899.53 343.06 892.53 343.84 884.74 346.17C854.77 355.12 830.64 384.31 819.36 409.22C815.47 417.01 813.14 424.79 812.36 431.01C811.97 432.96 811.97 434.9 811.97 436.85C811.97 442.3 813.14 446.97 816.25 450.86C818.97 453.98 822.09 456.31 826.37 457.09C827.15 457.09 827.93 457.48 828.31 457.48C845.05 457.48 880.08 424.78 910.82 395.6C917.44 389.38 919.77 387.43 925.22 381.98L926.39 385.48C927.94 386.26 929.5 386.65 931.06 386.65C935.34 386.65 940.01 384.31 943.52 379.26V377.7C943.52 375.37 943.52 370.7 941.96 366.03C950.91 357.47 956.75 352.02 956.75 352.02V352.41C956.75 355.52 951.69 369.15 949.36 383.93C946.64 394.83 945.47 403.78 945.47 411.56C945.47 440.75 962.98 451.26 987.89 451.26C1048.6 451.26 1152.91 390.15 1157.58 383.54C1159.53 381.2 1160.3 378.87 1160.3 376.53C1160.3 372.24 1157.97 369.13 1154.46 369.13C1152.12 369.13 1149.4 370.69 1147.07 375.36C1133.45 392.48 1041.6 444.64 992.17 444.64C973.1 444.64 960.26 437.24 960.26 417.01C960.26 409.22 962.21 399.5 966.48 387.82C973.1 371.08 976.21 357.85 976.21 348.51C976.21 339.95 973.49 334.89 968.43 334.11C967.65 333.72 966.48 333.33 965.31 333.33C957.91 333.33 944.29 343.06 932.61 352.79Z" fill="white"/>
</mask>
<g mask="url(#mask4_2312_152)">
<path d="M1160.28 333.33H811.96V457.49H1160.28V333.33Z" fill="#231F20"/>
</g>
<path d="M1117.85 616.66C1110.46 614.71 1108.12 608.87 1108.12 602.65C1108.12 598.76 1108.9 594.47 1110.07 590.98C1117.46 568.01 1148.6 522.87 1207.36 477.72C1211.25 485.89 1212.81 495.23 1212.81 505.35C1212.81 554.39 1170.78 618.21 1128.74 618.21C1124.85 618.22 1121.35 617.83 1117.85 616.66ZM1205.03 302.97C1196.47 307.25 1173.9 318.93 1159.49 338.39C1150.54 350.46 1147.04 361.74 1147.04 372.64C1147.04 409.22 1187.12 440.75 1201.91 465.66C1136.14 515.09 1103.45 560.23 1095.27 586.31C1093.71 591.76 1092.55 597.59 1092.55 603.43C1092.55 619 1098.77 634.18 1114.35 637.68C1119.4 638.85 1124.47 639.63 1129.53 639.63C1181.68 639.63 1225.66 573.47 1225.66 515.09C1225.66 499.91 1222.55 484.73 1215.54 471.89C1251.74 445.43 1289.1 428.69 1329.18 409.23C1351.36 398.33 1375.1 387.83 1401.96 384.71C1405.85 382.38 1407.8 378.09 1407.8 373.81C1407.8 366.81 1403.13 359.41 1394.18 358.63C1367.32 368.36 1337.75 382.76 1315.17 394.04C1275.47 413.5 1244.73 432.57 1208.92 458.26C1190.24 427.9 1167.28 404.94 1167.28 379.64C1167.28 369.91 1170.39 359.79 1178.56 348.89C1190.63 332.94 1204.25 320.87 1212.03 316.98C1215.53 315.03 1218.26 314.26 1220.2 314.26C1222.54 314.26 1223.31 315.81 1223.31 318.15C1223.31 329.05 1200.74 361.35 1200.74 361.74C1200.35 362.91 1200.35 364.07 1200.35 365.24C1200.35 373.81 1208.91 378.86 1217.09 378.86C1222.15 378.86 1227.21 377.31 1230.33 373.02C1230.33 372.63 1243.17 342.66 1243.17 318.92C1243.17 316.59 1243.17 314.64 1242.78 312.69C1241.61 303.35 1236.94 297.51 1226.43 297.51C1220.98 297.52 1213.98 299.09 1205.03 302.97Z" fill="#231F20"/>
<mask id="mask5_2312_152" style="mask-type:luminance" maskUnits="userSpaceOnUse" x="1092" y="297" width="316" height="343">
<path d="M1117.85 616.66C1110.46 614.71 1108.12 608.87 1108.12 602.65C1108.12 598.76 1108.9 594.47 1110.07 590.98C1117.46 568.01 1148.6 522.87 1207.36 477.72C1211.25 485.89 1212.81 495.23 1212.81 505.35C1212.81 554.39 1170.78 618.21 1128.74 618.21C1124.85 618.22 1121.35 617.83 1117.85 616.66ZM1205.03 302.97C1196.47 307.25 1173.9 318.93 1159.49 338.39C1150.54 350.46 1147.04 361.74 1147.04 372.64C1147.04 409.22 1187.12 440.75 1201.91 465.66C1136.14 515.09 1103.45 560.23 1095.27 586.31C1093.71 591.76 1092.55 597.59 1092.55 603.43C1092.55 619 1098.77 634.18 1114.35 637.68C1119.4 638.85 1124.47 639.63 1129.53 639.63C1181.68 639.63 1225.66 573.47 1225.66 515.09C1225.66 499.91 1222.55 484.73 1215.54 471.89C1251.74 445.43 1289.1 428.69 1329.18 409.23C1351.36 398.33 1375.1 387.83 1401.96 384.71C1405.85 382.38 1407.8 378.09 1407.8 373.81C1407.8 366.81 1403.13 359.41 1394.18 358.63C1367.32 368.36 1337.75 382.76 1315.17 394.04C1275.47 413.5 1244.73 432.57 1208.92 458.26C1190.24 427.9 1167.28 404.94 1167.28 379.64C1167.28 369.91 1170.39 359.79 1178.56 348.89C1190.63 332.94 1204.25 320.87 1212.03 316.98C1215.53 315.03 1218.26 314.26 1220.2 314.26C1222.54 314.26 1223.31 315.81 1223.31 318.15C1223.31 329.05 1200.74 361.35 1200.74 361.74C1200.35 362.91 1200.35 364.07 1200.35 365.24C1200.35 373.81 1208.91 378.86 1217.09 378.86C1222.15 378.86 1227.21 377.31 1230.33 373.02C1230.33 372.63 1243.17 342.66 1243.17 318.92C1243.17 316.59 1243.17 314.64 1242.78 312.69C1241.61 303.35 1236.94 297.51 1226.43 297.51C1220.98 297.52 1213.98 299.09 1205.03 302.97Z" fill="white"/>
</mask>
<g mask="url(#mask5_2312_152)">
<path d="M1407.79 297.52H1092.55V639.62H1407.79V297.52Z" fill="#231F20"/>
</g>
</g>
</svg>
